<?xml version="1.0" encoding="UTF-8" standalone="no"?>
<svg width="357px" height="117px" viewBox="0 0 357 117" version="1.1" xmlns="http://www.w3.org/2000/svg" xmlns:xlink="http://www.w3.org/1999/xlink" xmlns:sketch="http://www.bohemiancoding.com/sketch/ns">
    <!-- Generator: Sketch 3.1.1 (8761) - http://www.bohemiancoding.com/sketch -->
    <title>A-bandoned logo</title>
    <desc>Created with Sketch.</desc>
    <defs></defs>
    <g id="Page-1" stroke="none" stroke-width="1" fill="none" fill-rule="evenodd" sketch:type="MSPage">
        <g id="A-bandoned-logo" sketch:type="MSLayerGroup" transform="translate(2.000000, 2.000000)" fill="#1D1D1D">
            <rect id="Rectangle-1" sketch:type="MSShapeGroup" x="79" y="23" width="22" height="5"></rect>
            <path d="M106.601562,72.4140625 L106.601562,91.8203125 C108.710948,89.6328016 111.101549,88.5390625 113.773438,88.5390625 C116.851578,88.5390625 119.414052,89.6874885 121.460938,91.984375 C123.507823,94.2656364 124.53125,97.109358 124.53125,100.515625 C124.53125,104.031268 123.50001,106.937489 121.4375,109.234375 C119.390615,111.515636 116.804703,112.65625 113.679688,112.65625 C111.039049,112.65625 108.679698,111.640635 106.601562,109.609375 L106.601562,112 L101.328125,112 L101.328125,72.4140625 L106.601562,72.4140625 Z M119.140625,100.75 C119.140625,98.5624891 118.546881,96.7812569 117.359375,95.40625 C116.156244,93.999993 114.648447,93.296875 112.835938,93.296875 C110.898428,93.296875 109.320319,93.9765557 108.101562,95.3359375 C106.898431,96.6796942 106.296875,98.4296767 106.296875,100.585938 C106.296875,102.804699 106.890619,104.578118 108.078125,105.90625 C109.265631,107.265632 110.828115,107.945312 112.765625,107.945312 C114.593759,107.945312 116.109369,107.265632 117.3125,105.90625 C118.531256,104.531243 119.140625,102.81251 119.140625,100.75 L119.140625,100.75 Z M151.8375,89.171875 L157.134375,89.171875 L157.134375,112 L151.8375,112 L151.8375,109.609375 C149.665614,111.640635 147.3297,112.65625 144.829688,112.65625 C141.673422,112.65625 139.064073,111.515636 137.001563,109.234375 C134.954677,106.906238 133.93125,104.000017 133.93125,100.515625 C133.93125,97.0937329 134.954677,94.2421989 137.001563,91.9609375 C139.048448,89.6796761 141.610922,88.5390625 144.689063,88.5390625 C147.345326,88.5390625 149.728115,89.6328016 151.8375,91.8203125 L151.8375,89.171875 Z M139.321875,100.515625 C139.321875,102.703136 139.907807,104.484368 141.079688,105.859375 C142.282819,107.250007 143.798428,107.945312 145.626563,107.945312 C147.579697,107.945312 149.157807,107.273444 150.360938,105.929688 C151.564069,104.539056 152.165625,102.773448 152.165625,100.632812 C152.165625,98.4921768 151.564069,96.7265695 150.360938,95.3359375 C149.157807,93.9765557 147.595322,93.296875 145.673438,93.296875 C143.860929,93.296875 142.345319,93.9843681 141.126563,95.359375 C139.923432,96.750007 139.321875,98.4687398 139.321875,100.515625 L139.321875,100.515625 Z M168.690625,89.171875 L173.9875,89.171875 L173.9875,91.28125 C175.831259,89.4531159 177.909364,88.5390625 180.221875,88.5390625 C182.878138,88.5390625 184.94843,89.3749916 186.432813,91.046875 C187.714069,92.4687571 188.354688,94.7890464 188.354688,98.0078125 L188.354688,112 L183.057813,112 L183.057813,99.25 C183.057813,96.9999888 182.745316,95.4453168 182.120313,94.5859375 C181.510935,93.7109331 180.401571,93.2734375 178.792188,93.2734375 C177.042179,93.2734375 175.800004,93.8515567 175.065625,95.0078125 C174.346872,96.1484432 173.9875,98.1406108 173.9875,100.984375 L173.9875,112 L168.690625,112 L168.690625,89.171875 Z M216.739063,72.4140625 L222.035938,72.4140625 L222.035938,112 L216.739063,112 L216.739063,109.609375 C214.660927,111.640635 212.309388,112.65625 209.684375,112.65625 C206.55936,112.65625 203.965636,111.515636 201.903125,109.234375 C199.85624,106.906238 198.832813,104.000017 198.832813,100.515625 C198.832813,97.109358 199.85624,94.2656364 201.903125,91.984375 C203.934385,89.6874885 206.489047,88.5390625 209.567188,88.5390625 C212.239076,88.5390625 214.629677,89.6328016 216.739063,91.8203125 L216.739063,72.4140625 Z M204.223438,100.515625 C204.223438,102.703136 204.809369,104.484368 205.98125,105.859375 C207.184381,107.250007 208.699991,107.945312 210.528125,107.945312 C212.48126,107.945312 214.059369,107.273444 215.2625,105.929688 C216.465631,104.539056 217.067188,102.773448 217.067188,100.632812 C217.067188,98.4921768 216.465631,96.7265695 215.2625,95.3359375 C214.059369,93.9765557 212.496885,93.296875 210.575,93.296875 C208.762491,93.296875 207.246881,93.9843681 206.028125,95.359375 C204.824994,96.750007 204.223438,98.4687398 204.223438,100.515625 L204.223438,100.515625 Z M232.514063,100.421875 C232.514063,97.1249835 233.693739,94.3203241 236.053125,92.0078125 C238.412512,89.6953009 241.287483,88.5390625 244.678125,88.5390625 C248.084392,88.5390625 250.974989,89.7031134 253.35,92.03125 C255.693762,94.3593866 256.865625,97.218733 256.865625,100.609375 C256.865625,104.031267 255.68595,106.898426 253.326563,109.210938 C250.951551,111.507824 248.037518,112.65625 244.584375,112.65625 C241.162483,112.65625 238.295324,111.484387 235.982813,109.140625 C233.670301,106.828113 232.514063,103.921893 232.514063,100.421875 L232.514063,100.421875 Z M237.904688,100.515625 C237.904688,102.796886 238.514057,104.601556 239.732813,105.929688 C240.982819,107.273444 242.63124,107.945312 244.678125,107.945312 C246.740636,107.945312 248.389057,107.281257 249.623438,105.953125 C250.857819,104.624993 251.475,102.851574 251.475,100.632812 C251.475,98.4140514 250.857819,96.6406316 249.623438,95.3125 C248.373432,93.9687433 246.725011,93.296875 244.678125,93.296875 C242.66249,93.296875 241.029694,93.9687433 239.779688,95.3125 C238.529682,96.6562567 237.904688,98.3906144 237.904688,100.515625 L237.904688,100.515625 Z M267.34375,89.171875 L272.640625,89.171875 L272.640625,91.28125 C274.484385,89.4531159 276.562489,88.5390625 278.875,88.5390625 C281.531264,88.5390625 283.601556,89.3749916 285.085938,91.046875 C286.367194,92.4687571 287.007813,94.7890464 287.007813,98.0078125 L287.007813,112 L281.710938,112 L281.710938,99.25 C281.710938,96.9999888 281.398441,95.4453168 280.773438,94.5859375 C280.16406,93.7109331 279.054696,93.2734375 277.445313,93.2734375 C275.695304,93.2734375 274.453129,93.8515567 273.71875,95.0078125 C272.999997,96.1484432 272.640625,98.1406108 272.640625,100.984375 L272.640625,112 L267.34375,112 L267.34375,89.171875 Z M319.353126,101.828125 L302.993751,101.828125 C303.134376,103.703134 303.743745,105.195307 304.821876,106.304688 C305.900006,107.398443 307.282805,107.945312 308.970313,107.945312 C310.28282,107.945312 311.368746,107.632816 312.228126,107.007812 C313.07188,106.382809 314.032808,105.226571 315.110938,103.539062 L319.564063,106.023438 C318.87656,107.195318 318.150004,108.199215 317.384376,109.035156 C316.618747,109.871098 315.798442,110.558591 314.923438,111.097656 C314.048434,111.636721 313.103131,112.031249 312.087501,112.28125 C311.07187,112.531251 309.970319,112.65625 308.782813,112.65625 C305.376546,112.65625 302.642198,111.562511 300.579688,109.375 C298.517178,107.171864 297.485938,104.250018 297.485938,100.609375 C297.485938,96.999982 298.485928,94.0781362 300.485938,91.84375 C302.501573,89.640614 305.173421,88.5390625 308.501563,88.5390625 C311.860955,88.5390625 314.517178,89.6093643 316.470313,91.75 C318.407823,93.8750106 319.376563,96.8202937 319.376563,100.585938 L319.353126,101.828125 Z M313.939063,97.515625 C313.204684,94.7031109 311.431265,93.296875 308.618751,93.296875 C307.978122,93.296875 307.376566,93.3945303 306.814063,93.5898438 C306.25156,93.7851572 305.739847,94.0664044 305.278907,94.4335938 C304.817967,94.8007831 304.42344,95.2421849 304.095313,95.7578125 C303.767186,96.2734401 303.517189,96.8593717 303.345313,97.515625 L313.939063,97.515625 Z M346.846876,72.4140625 L352.143751,72.4140625 L352.143751,112 L346.846876,112 L346.846876,109.609375 C344.76874,111.640635 342.417201,112.65625 339.792188,112.65625 C336.667173,112.65625 334.073448,111.515636 332.010938,109.234375 C329.964053,106.906238 328.940626,104.000017 328.940626,100.515625 C328.940626,97.109358 329.964053,94.2656364 332.010938,91.984375 C334.042198,89.6874885 336.59686,88.5390625 339.675001,88.5390625 C342.346889,88.5390625 344.73749,89.6328016 346.846876,91.8203125 L346.846876,72.4140625 Z M334.331251,100.515625 C334.331251,102.703136 334.917182,104.484368 336.089063,105.859375 C337.292194,107.250007 338.807804,107.945312 340.635938,107.945312 C342.589073,107.945312 344.167182,107.273444 345.370313,105.929688 C346.573444,104.539056 347.175001,102.773448 347.175001,100.632812 C347.175001,98.4921768 346.573444,96.7265695 345.370313,95.3359375 C344.167182,93.9765557 342.604698,93.296875 340.682813,93.296875 C338.870304,93.296875 337.354694,93.9843681 336.135938,95.359375 C334.932807,96.750007 334.331251,98.4687398 334.331251,100.515625 L334.331251,100.515625 Z" id="bandoned" sketch:type="MSShapeGroup"></path>
            <path d="M25.09375,29.2109375 L9.6015625,29.2109375 L5.5703125,38 L-0.3125,38 L17.59375,-0.4609375 L34.8671875,38 L28.890625,38 L25.09375,29.2109375 Z M22.8671875,24.078125 L17.5,11.7734375 L11.875,24.078125 L22.8671875,24.078125 Z" id="A" sketch:type="MSShapeGroup"></path>
        </g>
    </g>
</svg>